<svg width="210" height="100" viewBox="0 0 210 100" fill="none" xmlns="http://www.w3.org/2000/svg">
<path d="M21.2798 99.864H-0.000241816V20.064C-0.000241816 6.68801 6.28243 1.28746e-05 18.8478 1.28746e-05H30.0958C37.4931 1.28746e-05 42.7624 2.43201 45.9038 7.29601C48.8424 2.43201 54.1118 1.28746e-05 61.7118 1.28746e-05H72.9598C85.5251 1.28746e-05 91.8078 6.68801 91.8078 20.064V99.864H70.5278V18.24C70.5278 17.4293 70.2238 16.72 69.6158 16.112C69.1091 15.504 68.4504 15.2 67.6398 15.2H59.4318C58.6211 15.2 57.9118 15.504 57.3038 16.112C56.7971 16.72 56.5438 17.4293 56.5438 18.24V99.864H35.2638V18.24C35.2638 17.4293 34.9598 16.72 34.3518 16.112C33.8451 15.504 33.1864 15.2 32.3758 15.2H24.1678C23.3571 15.2 22.6478 15.504 22.0398 16.112C21.5331 16.72 21.2798 17.4293 21.2798 18.24V99.864ZM118.593 61.256V99.864H97.313V1.52001H141.697V19.912H118.593V43.472H140.177V61.256H118.593ZM206.301 1.52001L189.581 46.664L209.493 99.864H187.757L173.165 60.952H166.325V99.864H145.045V1.52001H166.325V42.712H171.493L186.845 1.52001H206.301Z" fill="white"/>
</svg>
